<svg xmlns="http://www.w3.org/2000/svg" width="640" height="400" viewBox="0 0 640 400">
  <rect width="640" height="400" fill="#1a1a2e"/>
  <rect x="20" y="20" width="600" height="40" rx="8" fill="#16213e"/>
  <rect x="30" y="30" width="200" height="20" rx="4" fill="#0f3460"/>
  <rect x="540" y="30" width="70" height="20" rx="4" fill="#533483"/>
  <rect x="20" y="70" width="180" height="310" rx="8" fill="#16213e"/>
  <rect x="30" y="90" width="160" height="20" rx="3" fill="#e94560"/>
  <rect x="40" y="120" width="150" height="16" rx="3" fill="#0f3460"/>
  <rect x="40" y="144" width="150" height="16" rx="3" fill="#0f3460"/>
  <rect x="40" y="168" width="150" height="16" rx="3" fill="#0f3460"/>
  <rect x="50" y="192" width="140" height="16" rx="3" fill="#533483"/>
  <rect x="50" y="216" width="140" height="16" rx="3" fill="#0f3460"/>
  <rect x="40" y="248" width="150" height="16" rx="3" fill="#0f3460"/>
  <rect x="210" y="70" width="410" height="310" rx="8" fill="#16213e"/>
  <rect x="220" y="80" width="390" height="28" rx="4" fill="#0f3460"/>
  <rect x="220" y="118" width="390" height="28" rx="4" fill="#16213e" stroke="#0f3460" stroke-width="1"/>
  <rect x="220" y="154" width="390" height="28" rx="4" fill="#0f3460"/>
  <rect x="220" y="190" width="390" height="28" rx="4" fill="#16213e" stroke="#0f3460" stroke-width="1"/>
  <rect x="220" y="226" width="390" height="28" rx="4" fill="#0f3460"/>
</svg>
