<svg xmlns="http://www.w3.org/2000/svg" width="640" height="400" viewBox="0 0 640 400">
  <rect width="640" height="400" fill="#1a1a2e"/>
  <rect x="20" y="20" width="160" height="360" rx="8" fill="#16213e"/>
  <rect x="30" y="40" width="140" height="24" rx="4" fill="#0f3460"/>
  <rect x="30" y="74" width="140" height="24" rx="4" fill="#533483"/>
  <rect x="30" y="108" width="140" height="24" rx="4" fill="#0f3460"/>
  <rect x="200" y="20" width="420" height="360" rx="8" fill="#16213e"/>
  <rect x="220" y="50" width="280" height="14" rx="3" fill="#e94560"/>
  <rect x="220" y="80" width="380" height="10" rx="3" fill="#0f3460"/>
  <rect x="220" y="100" width="340" height="10" rx="3" fill="#0f3460"/>
  <rect x="220" y="120" width="360" height="10" rx="3" fill="#0f3460"/>
  <rect x="220" y="140" width="300" height="10" rx="3" fill="#0f3460"/>
  <rect x="220" y="170" width="380" height="10" rx="3" fill="#0f3460"/>
  <rect x="220" y="190" width="320" height="10" rx="3" fill="#0f3460"/>
</svg>
